<svg
    height="24px"
    width="24px"
    fill="currentcolor"
    xmlns="http://www.w3.org/2000/svg"
    viewBox="0 0 22 22"
    version="1.1"
    x="0px"
    y="0px"
  >
    <g>
      <path
        d="M380.938831,68.443142 C378.561215,66.8232798 377,64.0939606 377,61 C377,57.9060395 378.561215,55.1767204 380.93883,53.5568583 C380.013711,53.1912245 379.020974,53 378,53 C373.581722,53 370,56.581722 370,61 C370,65.418278 373.581722,69 378,69 C379.020981,69 380.013721,68.8087718 380.938831,68.443142 Z M382.200026,68.0416526 C379.698945,66.6891173 378,64.0429636 378,61 C378,57.9335799 379.725238,55.2701109 382.258007,53.9273007 L382.257111,53.9245038 C382.331422,53.8795315 382.394974,53.8146003 382.438853,53.732419 C382.568916,53.4888246 382.476881,53.1859155 382.233287,53.0558525 C380.941327,52.366033 379.496505,52 378,52 C373.029437,52 369,56.0294373 369,61 C369,65.9705627 373.029437,70 378,70 C379.498264,70 380.944711,69.6331047 382.237795,68.9417387 C382.481315,68.811537 382.573178,68.5085755 382.442977,68.2650552 C382.387428,68.1611609 382.300434,68.0848708 382.200026,68.0416526 Z"
        fill="currentcolor"
      ></path>
    </g>
  </svg>