<svg enable-background="new 0 0 512 512" height="300" viewBox="0 0 512 512" width="300" xmlns="http://www.w3.org/2000/svg"><path d="m142.703 352.586h-78.324c-5.523 0-10 4.477-10 10s4.477 10 10 10h78.324c15.592 0 30.509-7.429 39.904-19.872l60.491-80.118 60.491 80.118c9.395 12.443 24.312 19.872 39.904 19.872h79.986l-41.343 41.343c-3.905 3.905-3.906 10.237 0 14.142 1.953 1.953 4.512 2.929 7.071 2.929s5.119-.977 7.071-2.929l58.414-58.414c3.894-3.894 3.907-10.202.03-14.112l-58.414-58.909c-3.889-3.921-10.22-3.948-14.142-.06-3.922 3.889-3.949 10.22-.06 14.142l41.516 41.868h-80.13c-9.355 0-18.305-4.457-23.942-11.923l-63.922-84.663 63.922-84.663c5.637-7.466 14.587-11.923 23.942-11.923h80.13l-41.516 41.868c-3.889 3.922-3.862 10.253.06 14.142 1.95 1.934 4.496 2.899 7.041 2.899 2.574 0 5.146-.987 7.102-2.959l58.414-58.909c3.877-3.91 3.864-10.219-.03-14.112l-58.414-58.414c-3.905-3.905-10.237-3.905-14.142 0s-3.905 10.237 0 14.142l41.343 41.343h-79.986c-15.592 0-30.509 7.429-39.904 19.872l-60.491 80.118-60.491-80.118c-9.395-12.443-24.312-19.872-39.904-19.872h-78.325c-5.523 0-10 4.477-10 10s4.477 10 10 10h78.324c9.355 0 18.305 4.457 23.942 11.923l63.922 84.663-63.922 84.663c-5.637 7.466-14.587 11.923-23.942 11.923z"/></svg>