<svg height='300px' width='300px'  fill="#000000" xmlns="http://www.w3.org/2000/svg" xmlns:xlink="http://www.w3.org/1999/xlink" xmlns:sketch="http://www.bohemiancoding.com/sketch/ns" viewBox="0 0 22 22" version="1.1" x="0px" y="0px"><title>sun_light_lightness_darker</title><desc>Created with Sketch.</desc><g stroke="none" stroke-width="1" fill="none" fill-rule="evenodd" sketch:type="MSPage"><path d="M16,12 C16,9.23857625 13.7614237,7 11,7 C8.23857625,7 6,9.23857625 6,12 C6,14.7614237 8.23857625,17 11,17 C13.7614237,17 16,14.7614237 16,12 Z M7,12 C7,9.790861 8.790861,8 11,8 C13.209139,8 15,9.790861 15,12 C15,14.209139 13.209139,16 11,16 C8.790861,16 7,14.209139 7,12 Z M11,4 C10.7238576,4 10.5,4.21403503 10.5,4.50468445 L10.5,5.49531555 C10.5,5.77404508 10.7319336,6 11,6 C11.2761424,6 11.5,5.78596497 11.5,5.49531555 L11.5,4.50468445 C11.5,4.22595492 11.2680664,4 11,4 Z M16.6470717,6.33909368 C16.4518095,6.14383153 16.1421727,6.13688591 15.9366525,6.34240608 L15.2361705,7.04288805 C15.039079,7.23997959 15.0433065,7.56375567 15.2328581,7.75330724 C15.4281203,7.94856939 15.7377571,7.95551501 15.9432773,7.74999484 L16.6437593,7.04951287 C16.8408508,6.85242133 16.8366233,6.52864525 16.6470717,6.33909368 Z M18.9861654,11.9861654 C18.9861654,11.710023 18.7721303,11.4861654 18.4814809,11.4861654 L17.4908498,11.4861654 C17.2121203,11.4861654 16.9861654,11.718099 16.9861654,11.9861654 C16.9861654,12.2623077 17.2002004,12.4861654 17.4908498,12.4861654 L18.4814809,12.4861654 C18.7602104,12.4861654 18.9861654,12.2542318 18.9861654,11.9861654 Z M16.6470717,17.633237 C16.8423338,17.4379749 16.8492795,17.128338 16.6437593,16.9228179 L15.9432773,16.2223359 C15.7461858,16.0252444 15.4224097,16.0294719 15.2328581,16.2190235 C15.037596,16.4142856 15.0306504,16.7239225 15.2361705,16.9294427 L15.9366525,17.6299246 C16.133744,17.8270162 16.4575201,17.8227886 16.6470717,17.633237 Z M11,19.9723307 C11.2761424,19.9723307 11.5,19.7582957 11.5,19.4676463 L11.5,18.4770152 C11.5,18.1982857 11.2680664,17.9723307 11,17.9723307 C10.7238576,17.9723307 10.5,18.1863658 10.5,18.4770152 L10.5,19.4676463 C10.5,19.7463758 10.7319336,19.9723307 11,19.9723307 Z M5.35292832,17.6332371 C5.54819047,17.8284992 5.85782733,17.8354448 6.06334751,17.6299246 L6.76382948,16.9294427 C6.96092101,16.7323511 6.95669346,16.4085751 6.76714188,16.2190235 C6.57187974,16.0237613 6.26224287,16.0168157 6.0567227,16.2223359 L5.35624072,16.9228179 C5.15914919,17.1199094 5.16337675,17.4436855 5.35292832,17.6332371 Z M3.01383464,11.9861654 C3.01383464,12.2623077 3.22786967,12.4861654 3.51851908,12.4861654 L4.50915019,12.4861654 C4.78787971,12.4861654 5.01383464,12.2542318 5.01383464,11.9861654 C5.01383464,11.710023 4.7997996,11.4861654 4.50915019,11.4861654 L3.51851908,11.4861654 C3.23978956,11.4861654 3.01383464,11.718099 3.01383464,11.9861654 Z M5.35292831,6.33909369 C5.15766616,6.53435583 5.15072054,6.8439927 5.35624071,7.04951287 L6.05672268,7.74999484 C6.25381422,7.94708638 6.5775903,7.94285882 6.76714187,7.75330725 C6.96240402,7.5580451 6.96934964,7.24840823 6.76382947,7.04288806 L6.0633475,6.34240609 C5.86625596,6.14531455 5.54247988,6.14954211 5.35292831,6.33909369 Z" fill="#000000" sketch:type="MSShapeGroup"></path></g></svg>