<svg clip-rule="evenodd" fill-rule="evenodd" stroke-linecap="square" stroke-linejoin="round" stroke-miterlimit="1.41421" viewBox="0 0 3174 4133" xmlns="http://www.w3.org/2000/svg" xmlns:xlink="http://www.w3.org/1999/xlink"><clipPath id="a"><path clip-rule="evenodd" d="m677.165 1879.4h2027.26v1283.55h-2027.26z"/></clipPath><path d="m.07-.009h3173.31v4132.69h-3173.31z" fill="none"/><circle cx="1680.87" cy="2139.41" fill="none" r="900.438" stroke="#000" stroke-width="133.4" transform="matrix(-1.24939 0 0 1.24939 3674.33 -614.092)"/><g clip-path="url(#a)" transform="matrix(-.771847 0 0 .771847 2871.64 403.572)"><circle cx="1680.87" cy="2139.41" fill="none" r="900.438" stroke="#000" stroke-width="215.93"/></g><g fill="none" stroke="#000" stroke-linecap="butt"><path d="m4421.04 1816h1174.96" stroke-width="130.31" transform="matrix(1.5072 0 0 1 -5974.69 -453.134)"/><path d="m3807.55 6484.62 521.45 1.21 287.34 492.1 288.49-494.06-.11 1018.37-.02 62.14" stroke-linejoin="miter" stroke-miterlimit="2" stroke-width="197.02" transform="matrix(.870328 0 0 .820798 -2825.051 -3489.45)"/><path d="m6716.53 6484.88c-270.13 0-1235.19 0-1235.19 0l-529.28 611.46 528.59-611.46" stroke-linejoin="miter" stroke-miterlimit="2" stroke-width="224.19" transform="matrix(.686572 0 0 .796212 -1952.01 -3328.95)"/><path d="m5402.05 2412.62-193.04-282.31z" stroke-miterlimit="1" stroke-width="108.93" transform="matrix(1.53005 0 0 1.53005 -6461.45 -997.021)"/></g></svg>