<svg width="116" height="29" viewBox="0 0 116 29" fill="none" xmlns="http://www.w3.org/2000/svg">
<path d="M11.766 26.0359C9.47447 26.0359 7.43638 25.5772 5.65165 24.6599C3.88896 23.7212 2.50082 22.4199 1.48727 20.7559C0.49576 19.0706 0 17.1292 0 14.9319C0 13.2892 0.286438 11.7959 0.859313 10.4519C1.43219 9.08658 2.23642 7.91325 3.272 6.93191C4.32961 5.92925 5.57454 5.16125 7.00673 4.62791C8.46095 4.09458 10.0473 3.82791 11.766 3.82791C12.3829 3.82791 12.9668 3.85991 13.5177 3.92391C14.0905 3.98791 14.6414 4.09458 15.1702 4.24391V5.29991C13.2312 5.29991 11.5346 5.70525 10.0804 6.51591C8.64822 7.32658 7.53553 8.45725 6.74232 9.90791C5.9491 11.3372 5.55249 13.0119 5.55249 14.9319C5.55249 16.8306 5.9491 18.5052 6.74232 19.9559C7.53553 21.4066 8.64822 22.5372 10.0804 23.3479C11.5346 24.1586 13.2312 24.5639 15.1702 24.5639V25.6199C14.6414 25.7692 14.0905 25.8759 13.5177 25.9399C12.9668 26.0039 12.3829 26.0359 11.766 26.0359ZM11.7329 25.0759C10.2126 24.7346 8.87957 24.0946 7.73382 23.1559C6.58807 22.1959 5.69573 21.0119 5.05675 19.6039C4.41778 18.1746 4.09828 16.6172 4.09828 14.9319C4.09828 13.2466 4.41778 11.6999 5.05675 10.2919C5.69573 8.88391 6.58807 7.69991 7.73382 6.73991C8.87957 5.75858 10.2126 5.10791 11.7329 4.78791C10.2787 4.78791 8.92364 5.05458 7.66772 5.58791C6.41181 6.12125 5.32114 6.85725 4.39573 7.79591C3.47031 8.71325 2.7432 9.79058 2.2144 11.0279C1.70762 12.2439 1.45424 13.5452 1.45424 14.9319C1.45424 16.3399 1.70762 17.6626 2.2144 18.8999C2.7432 20.1159 3.47031 21.1932 4.39573 22.1319C5.32114 23.0492 6.41181 23.7746 7.66772 24.3079C8.92364 24.8199 10.2787 25.0759 11.7329 25.0759Z" fill="black"/>
<path d="M56.2816 5.55591C56.0172 5.55591 55.8189 5.29991 55.8189 5.07591C55.8189 4.97991 55.8189 4.94791 55.852 4.91591L57.5706 0.499912C57.6367 0.275913 57.7689 0.211914 58.0003 0.211914C58.1986 0.211914 58.3638 0.275913 58.4299 0.499912L60.1155 4.91591L60.1485 5.07591C60.1485 5.29991 59.9502 5.55591 59.6858 5.55591H56.2816ZM49.9359 9.45991C49.7046 9.45991 49.5724 9.36391 49.4732 9.17191L47.4572 4.91591C47.4241 4.85191 47.3911 4.78791 47.3911 4.72391C47.3911 4.40391 47.6555 4.24391 47.8868 4.24391C47.986 4.24391 48.019 4.27591 48.0851 4.27591L52.4808 6.25991C52.6461 6.32391 52.7783 6.48391 52.7783 6.67591C52.7783 6.83591 52.7452 6.93191 52.6461 6.99591L50.2334 9.29991C50.1673 9.39591 50.0681 9.45991 49.9359 9.45991ZM66.1637 9.45991C65.9654 9.45991 65.8332 9.39591 65.701 9.29991L63.3544 6.99591C63.2553 6.93191 63.1892 6.83591 63.1892 6.67591C63.1892 6.51591 63.2883 6.35591 63.4866 6.25991L67.9154 4.27591C67.9485 4.27591 68.0146 4.24391 68.0807 4.24391C68.3451 4.24391 68.5764 4.43591 68.5764 4.72391C68.5764 4.75591 68.5764 4.78791 68.5434 4.81991L68.5103 4.91591L66.4942 9.17191C66.3951 9.33191 66.2959 9.42791 66.1637 9.45991ZM58.0003 22.0679C53.6707 22.0679 50.1673 18.6759 50.1673 14.4839C50.1673 10.2919 53.6707 6.93191 58.0003 6.93191C62.2638 6.93191 65.8332 10.2919 65.8332 14.4839C65.8332 18.7079 62.2638 22.0679 58.0003 22.0679ZM58.0003 20.1799C61.2062 20.1799 63.8832 17.6519 63.8832 14.4839C63.8832 11.3479 61.2062 8.81991 58.0003 8.81991C54.7613 8.81991 52.1173 11.3479 52.1173 14.4839C52.1173 17.6199 54.7613 20.1799 58.0003 20.1799ZM48.2504 16.5959L48.0851 16.5639L43.5241 14.9319C43.3258 14.8679 43.2267 14.6759 43.2267 14.4839C43.2267 14.2919 43.3258 14.1319 43.5241 14.0679L48.1843 12.4039H48.2504C48.5478 12.4039 48.7131 12.6279 48.7131 12.8839V16.1159C48.7131 16.3719 48.5478 16.5959 48.2504 16.5959ZM67.7171 16.5959C67.4527 16.5959 67.2544 16.4039 67.2544 16.1159V12.8839C67.2544 12.6279 67.4197 12.4039 67.6841 12.4039C67.7502 12.4039 67.8163 12.4039 67.8824 12.4359L72.4433 14.0679C72.6747 14.1639 72.7738 14.2919 72.7738 14.4839C72.7738 14.7079 72.6747 14.8359 72.4433 14.9319L67.8824 16.5639L67.7171 16.5959ZM47.8868 24.7559C47.5894 24.7559 47.3911 24.5639 47.3911 24.2759L47.4241 24.1799C47.4241 24.1479 47.4241 24.1159 47.4572 24.0839L49.4732 19.7959C49.5724 19.6359 49.7046 19.5399 49.9029 19.5399C50.0682 19.5399 50.1673 19.6039 50.2334 19.6679L52.6461 22.0039C52.7452 22.0679 52.7783 22.1959 52.7783 22.3239C52.7783 22.4839 52.6461 22.6759 52.4808 22.7399L48.0851 24.6919C48.019 24.7239 47.9529 24.7559 47.8868 24.7559ZM68.0807 24.7559C68.0146 24.7559 67.9815 24.7239 67.9154 24.6919L63.4866 22.7399C63.2883 22.6439 63.1892 22.5159 63.1892 22.3239C63.1892 22.1959 63.2553 22.0679 63.3544 22.0039L65.701 19.6679C65.8002 19.6039 65.9324 19.5399 66.0646 19.5399C66.2298 19.5399 66.3951 19.6359 66.4942 19.7959L68.5103 24.0839L68.5434 24.1799C68.5434 24.2439 68.5434 24.2439 68.5764 24.2759C68.5764 24.5319 68.3781 24.7559 68.0807 24.7559ZM58.0003 28.7879C57.802 28.7879 57.6367 28.6919 57.5706 28.4999L55.852 24.0839C55.852 24.0519 55.852 24.0199 55.8189 23.9239C55.8189 23.6679 55.9842 23.4439 56.2816 23.4439H59.6858C59.9172 23.4439 60.1485 23.6679 60.1485 23.9239C60.1485 23.9879 60.1486 24.0519 60.1155 24.0839L58.4299 28.4999C58.3638 28.6919 58.1986 28.7879 58.0003 28.7879Z" fill="black"/>
<path d="M104.234 26.0359C103.617 26.0359 103.022 26.0039 102.449 25.9399C101.898 25.8759 101.359 25.7692 100.83 25.6199V24.5639C102.769 24.5639 104.454 24.1586 105.887 23.3479C107.341 22.5372 108.464 21.4066 109.258 19.9559C110.051 18.5052 110.448 16.8306 110.448 14.9319C110.448 13.0332 110.051 11.3586 109.258 9.90791C108.464 8.45725 107.352 7.32658 105.92 6.51591C104.487 5.70525 102.791 5.29991 100.83 5.29991V4.24391C101.843 3.96658 102.978 3.82791 104.234 3.82791C105.953 3.82791 107.528 4.09458 108.96 4.62791C110.414 5.16125 111.659 5.91858 112.695 6.89991C113.753 7.85991 114.568 9.02258 115.141 10.3879C115.714 11.7532 116 13.2679 116 14.9319C116 17.1079 115.493 19.0386 114.48 20.7239C113.488 22.3879 112.111 23.6892 110.348 24.6279C108.586 25.5666 106.548 26.0359 104.234 26.0359ZM104.267 25.0759C105.721 25.0759 107.076 24.8092 108.332 24.2759C109.588 23.7426 110.679 23.0172 111.604 22.0999C112.53 21.1612 113.246 20.0839 113.753 18.8679C114.281 17.6306 114.546 16.3186 114.546 14.9319C114.546 13.5239 114.281 12.2119 113.753 10.9959C113.246 9.75858 112.53 8.68125 111.604 7.76391C110.679 6.82525 109.588 6.09991 108.332 5.58791C107.076 5.05458 105.721 4.78791 104.267 4.78791C105.809 5.10791 107.153 5.75858 108.299 6.73991C109.445 7.69991 110.326 8.88391 110.943 10.2919C111.582 11.6999 111.902 13.2466 111.902 14.9319C111.902 16.5959 111.582 18.1426 110.943 19.5719C110.326 20.9799 109.445 22.1639 108.299 23.1239C107.153 24.0839 105.809 24.7346 104.267 25.0759Z" fill="black"/>
</svg>
