<svg xmlns="http://www.w3.org/2000/svg" fill="none" viewBox="0 0 16 16"><path
    fill="#3A2814"
    d="M0 1.938V0h2.667L0 1.938Z"
  /><path
    fill="#2E221B"
    d="M0 2.889v-.951L2.658 0h2.48l2.07 4.942L0 2.89Z"
  /><path fill="#408803" d="M7.209 4.942 5.138 0h4.64l-2.57 4.942Z" /><path
    fill="#5A7567"
    d="M7.209 4.942 9.778 0h.355l1.671 3.253-4.595 1.69Z"
  /><path fill="#285D37" d="M11.804 3.253 10.134 0h3.004l-1.334 3.253Z" /><path
    fill="#4B6A47"
    d="M11.804 3.253 13.138 0h.489l2.249 3.609-4.072-.356Z"
  /><path fill="#3E5B28" d="M15.876 3.609 13.626 0H16v3.378l-.124.23Z" /><path
    fill="#417643"
    d="m16 3.378-.124.23H16v-.23Z"
  /><path fill="#1B1A15" d="m16 3.751-.124-.142H16v.142Z" /><path
    fill="#26533D"
    d="M16 9.191v-5.44l-.124-.142L14.24 9.76 16 9.191Z"
  /><path fill="#4B986D" d="m16 9.191-1.76.569L16 11.324V9.191Z" /><path
    fill="#1E2D62"
    d="M14.24 9.76 16 11.324v1.014l-4.151 1.404L14.24 9.76Z"
  /><path
    fill="#0E1434"
    d="m14.4 16-2.551-2.258L16 12.338v3.129l-.129.533H14.4Z"
  /><path fill="#232D04" d="M16 16h-.133l.133-.524V16Z" /><path
    fill="#102A71"
    d="M11.849 13.742 14.4 16h-4.124l1.573-2.258Z"
  /><path
    fill="#284890"
    d="m10.276 16 1.573-2.258-6.267-1.404L7.324 16h2.952Z"
  /><path
    fill="#407B36"
    d="m14.24 9.76-2.436-6.507 4.072.356L14.24 9.76Z"
  /><path
    fill="#965A34"
    d="m7.04 8.462 4.764-5.209L14.24 9.76l-7.2-1.298Z"
  /><path
    fill="#FFDAD9"
    d="m7.04 8.462 4.764-5.209-4.595 1.69-.169 3.52Z"
  /><path fill="#E5AD99" d="m4.338 8.409 2.702.053.169-3.52L4.338 8.41Z" /><path
    fill="#295E1B"
    d="m4.338 8.409 2.87-3.467L0 2.89v.773L4.338 8.41Z"
  /><path fill="#1E2A07" d="m0 8.267 4.338.142L0 3.662v4.605Z" /><path
    fill="#0B2863"
    d="M5.582 12.338 7.324 16H3.378l2.204-3.662Z"
  /><path
    fill="#0C220C"
    d="m0 8.267 4.338.142-2.774 3.911L0 11.084V8.267Z"
  /><path
    fill="#693D22"
    d="m14.24 9.76-7.2-1.298 4.809 5.28L14.24 9.76Z"
  /><path
    fill="#3C2B25"
    d="m5.582 12.338-1.244-3.93 2.702.054-1.458 3.876Z"
  /><path
    fill="#362F36"
    d="M5.582 12.338 7.04 8.462l4.809 5.28-6.267-1.404Z"
  /><path
    fill="#371C0F"
    d="m5.582 12.338-1.244-3.93-2.774 3.912 4.018.018Z"
  /><path
    fill="#0C1F51"
    d="m3.378 16 2.204-3.662-4.018-.018L1.44 16h1.938Z"
  /><path fill="#161709" d="m0 12.604 1.564-.284L0 11.084v1.52Z" /><path
    fill="#190D05"
    d="m0 12.604 1.564-.284L0 14.827v-2.223Z"
  /><path fill="#0D0B0C" d="m1.44 16 .124-3.68L0 14.818V16h1.44Z" /></svg>
