<svg viewBox="0 0 16 16" fill="#131315" xmlns="http://www.w3.org/2000/svg">
<path
    d="M0.0475571 2.00322L2.71422 0.0654456L2.61911 -0.0654456L-0.0475571 1.87233L0.0475571 2.00322ZM-0.0221616 2.96669L7.18673 5.02003L7.23105 4.86442L0.0221616 2.81108L-0.0221616 2.96669ZM7.2835 4.91095L5.21239 -0.0312678L5.06316 0.0312678L7.13428 4.97349L7.2835 4.91095ZM7.28067 4.97953L9.84956 0.0373112L9.706 -0.0373112L7.13711 4.90491L7.28067 4.97953ZM7.2368 5.01816L11.8324 3.32927L11.7765 3.1774L7.18098 4.86629L7.2368 5.01816ZM11.8764 3.21637L10.2053 -0.0369639L10.0614 0.0369639L11.7325 3.2903L11.8764 3.21637ZM11.8793 3.28401L13.2126 0.0306792L13.0629 -0.0306792L11.7296 3.22265L11.8793 3.28401ZM11.7974 3.33393L15.8685 3.68948L15.8826 3.5283L11.8115 3.17274L11.7974 3.33393ZM15.9442 3.5661L13.6953 -0.0427857L13.558 0.0427857L15.8069 3.65167L15.9442 3.5661ZM15.9468 3.64724L16.0712 3.41613L15.9288 3.33942L15.8043 3.57053L15.9468 3.64724ZM16 3.52799H15.8756V3.68979H16V3.52799ZM15.8147 3.66216L15.9391 3.80438L16.0609 3.69784L15.9364 3.55562L15.8147 3.66216ZM15.9751 9.11413L14.2151 9.68302L14.2649 9.83698L16.0249 9.26809L15.9751 9.11413ZM14.3182 9.78079L15.9537 3.62968L15.7974 3.5881L14.1618 9.73921L14.3182 9.78079ZM16.0537 11.264L14.2937 9.69953L14.1863 9.82047L15.9463 11.3849L16.0537 11.264ZM14.1706 9.71835L11.7795 13.7006L11.9182 13.7839L14.3094 9.80165L14.1706 9.71835ZM11.8748 13.8189L16.0259 12.4144L15.9741 12.2611L11.823 13.6656L11.8748 13.8189ZM11.7953 13.8028L14.3464 16.0606L14.4536 15.9394L11.9025 13.6816L11.7953 13.8028ZM15.8547 16.025L16.0769 15.3405L15.9231 15.2906L15.7008 15.975L15.8547 16.025ZM11.7825 13.696L10.2092 15.9537L10.3419 16.0463L11.9153 13.7885L11.7825 13.696ZM7.3975 15.9652L5.65528 12.303L5.50917 12.3725L7.25139 16.0348L7.3975 15.9652ZM5.56453 12.4167L11.8312 13.8212L11.8666 13.6633L5.59991 12.2588L5.56453 12.4167ZM11.7287 3.28169L14.1642 9.78836L14.3158 9.73164L11.8802 3.22497L11.7287 3.28169ZM11.7447 3.19873L6.98031 8.40762L7.0997 8.51682L11.8641 3.30793L11.7447 3.19873ZM7.02565 8.54184L14.2256 9.83962L14.2544 9.68038L7.05435 8.38261L7.02565 8.54184ZM7.12081 8.4661L7.2897 4.9461L7.12808 4.93835L6.95919 8.45835L7.12081 8.4661ZM7.0416 8.38134L4.33937 8.328L4.33618 8.48977L7.0384 8.54311L7.0416 8.38134ZM4.40008 8.46049L7.2712 4.99382L7.14658 4.89062L4.27547 8.35729L4.40008 8.46049ZM4.3975 8.35431L0.0597193 3.60765L-0.0597193 3.7168L4.27806 8.46346L4.3975 8.35431ZM4.34043 8.32803L0.00265103 8.18581L-0.00265103 8.34752L4.33513 8.48975L4.34043 8.32803ZM5.51291 12.2961L3.30847 15.9583L3.44709 16.0417L5.65153 12.3795L5.51291 12.2961ZM-0.0501409 11.1479L1.5143 12.3835L1.61459 12.2565L0.0501409 11.021L-0.0501409 11.1479ZM1.63044 12.3668L4.40377 8.45568L4.27179 8.36209L1.49845 12.2732L1.63044 12.3668ZM11.9087 13.6877L7.09981 8.40775L6.98019 8.5167L11.7891 13.7967L11.9087 13.6877ZM4.26065 8.43332L5.5051 12.3622L5.65935 12.3133L4.4149 8.38446L4.26065 8.43332ZM5.65794 12.3663L7.11572 8.4907L6.96428 8.43374L5.5065 12.3093L5.65794 12.3663ZM5.58258 12.2569L1.5648 12.2391L1.56409 12.4009L5.58186 12.4187L5.58258 12.2569ZM1.52085 16.0027L1.6453 12.3227L1.48359 12.3173L1.35915 15.9973L1.52085 16.0027ZM1.54997 12.2404L-0.0144718 12.5248L0.0144718 12.684L1.57892 12.3996L1.54997 12.2404ZM0.0686304 14.8695L1.63307 12.3628L1.49581 12.2772L-0.0686304 14.7838L0.0686304 14.8695ZM0 0V-0.1618H-0.1618V0H0ZM16 0H16.1618V-0.1618H16V0ZM16 16V16.1618H16.1618V16H16ZM0 16H-0.1618V16.1618H0V16ZM-0.1618 0V1.93778H0.1618V0H-0.1618ZM2.66667 -0.1618H0V0.1618H2.66667V-0.1618ZM-0.1618 1.93778V2.88889H0.1618V1.93778H-0.1618ZM5.13778 -0.1618H2.66667V0.1618H5.13778V-0.1618ZM9.77778 -0.1618H5.13778V0.1618H9.77778V-0.1618ZM10.1333 -0.1618H9.77778V0.1618H10.1333V-0.1618ZM13.1378 -0.1618H10.1333V0.1618H13.1378V-0.1618ZM13.6267 -0.1618H13.1378V0.1618H13.6267V-0.1618ZM16.1618 3.37778V0H15.8382V3.37778H16.1618ZM16 -0.1618H13.6267V0.1618H16V-0.1618ZM15.8382 3.37778V3.60889H16.1618V3.37778H15.8382ZM16.1618 3.75111V3.60889H15.8382V3.75111H16.1618ZM15.8382 3.75111V9.19111H16.1618V3.75111H15.8382ZM15.8382 9.19111V11.3244H16.1618V9.19111H15.8382ZM16.1618 12.3378V11.3244H15.8382V12.3378H16.1618ZM14.4 16.1618H15.7778V15.8382H14.4V16.1618ZM16.1618 15.3156V12.3378H15.8382V15.3156H16.1618ZM15.7778 16.1618H16V15.8382H15.7778V16.1618ZM16.1618 16V15.3156H15.8382V16H16.1618ZM10.2756 16.1618H14.4V15.8382H10.2756V16.1618ZM10.2756 15.8382H7.32444V16.1618H10.2756V15.8382ZM0.1618 3.66222V2.88889H-0.1618V3.66222H0.1618ZM0.1618 8.26667V3.66222H-0.1618V8.26667H0.1618ZM3.37778 16.1618H7.32444V15.8382H3.37778V16.1618ZM-0.1618 8.26667V11.0844H0.1618V8.26667H-0.1618ZM3.37778 15.8382H1.44V16.1618H3.37778V15.8382ZM0.1618 12.6044V11.0844H-0.1618V12.6044H0.1618ZM-0.1618 12.6044V14.8267H0.1618V12.6044H-0.1618ZM1.44 15.8382H0V16.1618H1.44V15.8382ZM0.1618 16V14.8267H-0.1618V16H0.1618Z"
  />
</svg>
