<svg xmlns="http://www.w3.org/2000/svg" fill="none" viewBox="0 0 900 900"><path
    fill="#fff"
    d="M0 0h900v900H0z"
  /><path fill="#3A2814" d="M0 109V0h150L0 109Z" /><path
    fill="#2E221B"
    d="M0 162.5V109L149.5 0H289l116.5 278L0 162.5Z"
  /><path fill="#408803" d="M405.5 278 289 0h261L405.5 278Z" /><path
    fill="#5A7567"
    d="M405.5 278 550 0h20l94 183-258.5 95Z"
  /><path fill="#285D37" d="M664 183 570 0h169l-75 183Z" /><path
    fill="#4B6A47"
    d="M664 183 739 0h27.5L893 203l-229-20Z"
  /><path fill="#3E5B28" d="M893 203 766.5 0H900v190l-7 13Z" /><path
    fill="#417643"
    d="m900 190-7 13h7v-13Z"
  /><path fill="#1B1A15" d="m900 211-7-8h7v8Z" /><path
    fill="#26533D"
    d="M900 517V211l-7-8-92 346 99-32Z"
  /><path fill="#4B986D" d="m900 517-99 32 99 88V517Z" /><path
    fill="#1E2D62"
    d="m801 549 99 88v57l-233.5 79L801 549Z"
  /><path
    fill="#0E1434"
    d="M810 900 666.5 773 900 694v176l-7.248 30H810Z"
  /><path fill="#232D04" d="M900 900h-7.5l7.5-29.5V900Z" /><path
    fill="#102A71"
    d="M666.5 773 810 900H578l88.5-127Z"
  /><path fill="#284890" d="m578 900 88.5-127L314 694l98 206h166Z" /><path
    fill="#407B36"
    d="M801 549 664 183l229 20-92 346Z"
  /><path fill="#965A34" d="m396 476 268-293 137 366-405-73Z" /><path
    fill="#FFDAD9"
    d="m396 476 268-293-258.5 95-9.5 198Z"
  /><path fill="#E5AD99" d="m244 473 152 3 9.5-198L244 473Z" /><path
    fill="#295E1B"
    d="m244 473 161.5-195L0 162.5V206l244 267Z"
  /><path fill="#1E2A07" d="m0 465 244 8L0 206v259Z" /><path
    fill="#0B2863"
    d="m314 694 98 206H190l124-206Z"
  /><path fill="#0C220C" d="m0 465 244 8L88 693 0 623.5V465Z" /><path
    fill="#693D22"
    d="m801 549-405-73 270.5 297L801 549Z"
  /><path fill="#3C2B25" d="m314 694-70-221 152 3-82 218Z" /><path
    fill="#362F36"
    d="m314 694 82-218 270.5 297L314 694Z"
  /><path fill="#371C0F" d="m314 694-70-221L88 693l226 1Z" /><path
    fill="#0C1F51"
    d="m190 900 124-206-226-1-7 207h109Z"
  /><path fill="#161709" d="m0 709 88-16-88-69.5V709Z" /><path
    fill="#190D05"
    d="m0 709 88-16L0 834V709Z"
  /><path fill="#0D0B0C" d="m81 900 7-207L0 833.5V900h81Z" /></svg>
