<?xml version="1.0" encoding="UTF-8" standalone="no"?>
<!DOCTYPE svg PUBLIC "-//W3C//DTD SVG 1.1//EN" "http://www.w3.org/Graphics/SVG/1.1/DTD/svg11.dtd">
<svg width="100%" height="100%" viewBox="0 0 300 300" version="1.1" xmlns="http://www.w3.org/2000/svg" xmlns:xlink="http://www.w3.org/1999/xlink" xml:space="preserve" xmlns:serif="http://www.serif.com/" style="fill-rule:evenodd;clip-rule:evenodd;stroke-linejoin:round;stroke-miterlimit:1.41421;">
    <g transform="matrix(1,0,0,1,0,-2857.09)">
        <path d="M36,2893.09L36,3121.09L264,3121.09L264,2893.09L36,2893.09ZM84,2953.09L216,2953.09C219.314,2953.09 222,2955.77 222,2959.09C222,2962.4 219.314,2965.09 216,2965.09L84,2965.09C80.686,2965.09 78,2962.4 78,2959.09C78,2955.77 80.686,2953.09 84,2953.09ZM84,3001.09L216,3001.09C219.314,3001.09 222,3003.77 222,3007.09C222,3010.4 219.314,3013.09 216,3013.09L84,3013.09C80.686,3013.09 78,3010.4 78,3007.09C78,3003.77 80.686,3001.09 84,3001.09ZM84,3049.09L216,3049.09C219.314,3049.09 222,3051.77 222,3055.09C222,3058.4 219.314,3061.09 216,3061.09L84,3061.09C80.686,3061.09 78,3058.4 78,3055.09C78,3051.77 80.686,3049.09 84,3049.09Z" style="fill:rgb(34,56,67);fill-rule:nonzero;"/>
    </g>
</svg>
